<!-- src/assets/security-illustration.svg -->
<svg width="320" height="260" viewBox="0 0 800 650" xmlns="http://www.w3.org/2000/svg">
  <rect width="800" height="650" fill="white" />
  <g stroke="#4785ff" stroke-width="4" fill="none">
    <circle cx="180" cy="160" r="80" fill="#e8f0ff" />
    <path d="M140 220c0-40 80-40 80 0v40h-80z" fill="#4785ff" opacity="0.2" />
    <circle cx="180" cy="150" r="30" />
    <path d="M280 180h240a20 20 0 0120 20v200a20 20 0 01-20 20H280a20 20 0 01-20-20V200a20 20 0 0120-20z" fill="#f0f5ff"/>
    <path d="M320 220h160v40H320z" fill="#4785ff" opacity="0.3" />
    <path d="M320 280h160v20H320z" fill="#4785ff" opacity="0.15" />
    <path d="M320 320h120v20H320z" fill="#4785ff" opacity="0.15" />
    <rect x="360" y="400" width="80" height="40" rx="8" fill="#4785ff" />
    <text x="380" y="428" font-size="20" fill="white" font-family="sans-serif">LOGIN</text>
    <path d="M560 100l40 40m0-40l-40 40" stroke="#43b02a" stroke-width="6" />
    <circle cx="600" cy="400" r="40" stroke-dasharray="6 6" />
    <path d="M590 390l20 20m-20 0l20-20" stroke="#ff6666" stroke-width="4" />
  </g>
  <text x="180" y="100" text-anchor="middle" font-size="20" fill="#666" font-family="sans-serif">
    用户登录验证
  </text>
  <text x="400" y="480" text-anchor="middle" font-size="14" fill="#999" font-family="sans-serif">
    JXUST SoftHub — 软件协会
  </text>
</svg>